HIERARCHY
ROOT Hips
{
	OFFSET 0.000000 0.000000 0.000000 
	CHANNELS 6 Xposition Yposition Zposition Yrotation Zrotation Xrotation 
	JOINT Lumbar
	{
		OFFSET 0.000000 0.000000 0.000000 
		CHANNELS 3 Zrotation Xrotation Yrotation
		JOINT Neck
		{
			OFFSET 0.000000 0.445665 0.000000 
			CHANNELS 3 Zrotation Xrotation Yrotation
			End Site
			{
				OFFSET 0.000000 0.227535 0.000000 
			}
		}
		JOINT RightShoulder
		{
			OFFSET 0.019635 0.377685 0.194865 
			CHANNELS 3 Zrotation Xrotation Yrotation
			JOINT RightElbow
			{
				OFFSET 0.000000 -0.243375 0.000000 
				CHANNELS 2 Zrotation Yrotation
				JOINT RightWrist
				{
					OFFSET 0.000000 -0.264825 0.000000 
					CHANNELS 2 Zrotation Xrotation
					End Site
					{
						OFFSET 0.006600 -0.176220 0.000990 
					}
				}
			}
		}
		JOINT LeftShoulder
		{
			OFFSET 0.019635 0.377685 -0.194865 
			CHANNELS 3 Zrotation Xrotation Yrotation
			JOINT LeftElbow
			{
				OFFSET 0.000000 -0.243375 0.000000 
				CHANNELS 2 Zrotation Yrotation
				JOINT LeftWrist
				{
					OFFSET 0.000000 -0.264825 0.000000 
					CHANNELS 2 Zrotation Xrotation
					End Site
					{
						OFFSET 0.006600 -0.176220 -0.000990 
					}
				}
			}
		}
	}
	JOINT RightHip
	{
		OFFSET 0.052140 -0.069960 0.075570 
		CHANNELS 3 Zrotation Xrotation Yrotation
		JOINT RightKnee
		{
			OFFSET 0.000000 -0.402270 0.000000 
			CHANNELS 1 Zrotation
			JOINT RightAnkle
			{
				OFFSET 0.000000 -0.404085 0.000000 
				CHANNELS 3 Zrotation Xrotation Yrotation
				End Site
				{
					OFFSET 0.204105 -0.089430 0.008415 
				}
			}
		}
	}
	JOINT LeftHip
	{
		OFFSET 0.052140 -0.069960 -0.075570 
		CHANNELS 3 Zrotation Xrotation Yrotation
		JOINT LeftKnee
		{
			OFFSET 0.000000 -0.402270 0.000000 
			CHANNELS 1 Zrotation
			JOINT LeftAnkle
			{
				OFFSET 0.000000 -0.404085 0.000000 
				CHANNELS 3 Zrotation Xrotation Yrotation
				End Site
				{
					OFFSET 0.204105 -0.089430 -0.008415 
				}
			}
		}
	}
}
MOTION
Frames: 14
Frame Time: 0.02
-0.00022 0.0001 -4e-05 21.73453 -29.16132 -7.46545 45.97568 3.22891 -2.66321 -12.03865 -3.11322 -1.24863 49.98909 -107.27545 55.63411 7.02027 89.52791 11.49372 -1.19344 30.80141 105.70325 -55.63259 8.21051 -89.4771 8.69811 0.66267 45.70827 -6.33093 -8.12294 -21.90521 -6.95638 -2.09819 -3.29409 49.4715 12.67024 4.76316 -27.21568 -7.04104 1.41578 2.9388
0.00019 0.00014 -0.0002 21.7555 -29.15502 -7.4725 45.99702 3.22531 -2.65069 -12.05244 -3.09963 -1.24954 50.12583 -107.26328 55.63411 7.00656 89.52411 11.52155 -1.19291 30.88988 105.70352 -55.63274 8.1977 -89.4675 8.71296 0.66238 45.65463 -6.33211 -8.17018 -21.90217 -6.95386 -2.10552 -3.29578 49.43653 12.62509 4.54845 -27.21726 -7.0354 1.43223 2.94799
0.00059 0.00018 -0.00036 21.77644 -29.14874 -7.47952 46.0183 3.22172 -2.6382 -12.06621 -3.08607 -1.25045 50.26223 -107.25111 55.63411 6.99288 89.52034 11.54931 -1.19238 30.97824 105.70374 -55.63288 8.1849 -89.45791 8.72779 0.66205 45.60111 -6.3333 -8.21727 -21.89913 -6.95134 -2.11284 -3.29746 49.40164 12.58003 4.33429 -27.21883 -7.02976 1.44862 2.95716
0.00099 0.00022 -0.00052 21.79736 -29.14246 -7.48655 46.03958 3.21812 -2.62572 -12.07996 -3.07251 -1.25135 50.39855 -107.23897 55.63411 6.97921 89.51656 11.57706 -1.19186 31.06646 105.704 -55.63302 8.17212 -89.44834 8.7426 0.66176 45.54763 -6.33448 -8.26437 -21.8961 -6.94883 -2.12015 -3.29914 49.36677 12.53501 4.12022 -27.2204 -7.02413 1.46502 2.96633
0.0014 0.00027 -0.00068 21.81829 -29.13617 -7.4936 46.0609 3.21452 -2.6132 -12.09374 -3.05893 -1.25226 50.53521 -107.22687 55.63411 6.96552 89.51276 11.60487 -1.19133 31.15471 105.70433 -55.63317 8.15935 -89.43877 8.7574 0.6615 45.49405 -6.33564 -8.31158 -21.89305 -6.94631 -2.12748 -3.30083 49.33184 12.48992 3.90565 -27.22197 -7.01849 1.48145 2.97551
0.0018 0.00031 -0.00083 21.83924 -29.1299 -7.50055 46.0821 3.21094 -2.60077 -12.1075 -3.04543 -1.25316 50.67106 -107.21454 55.63411 6.95184 89.50903 11.63254 -1.19078 31.2433 105.70433 -55.63331 8.14648 -89.42914 8.77229 0.66103 45.44069 -6.33689 -8.35842 -21.89004 -6.9438 -2.13476 -3.3025 49.29704 12.44496 3.69237 -27.22353 -7.01288 1.49778 2.98465
0.0022 0.00035 -0.00099 21.86012 -29.1236 -7.5077 46.10354 3.20732 -2.58819 -12.12126 -3.03177 -1.25408 50.80834 -107.20268 55.63411 6.93817 89.50516 11.66045 -1.1903 31.33112 105.70498 -55.63345 8.13382 -89.41966 8.787 0.66099 45.38693 -6.33796 -8.40601 -21.88696 -6.94128 -2.14213 -3.3042 49.262 12.39977 3.47671 -27.22511 -7.00721 1.5143 2.99388
0.00261 0.00039 -0.00115 21.88108 -29.11733 -7.51467 46.12474 3.20374 -2.57574 -12.13503 -3.01825 -1.25498 50.9444 -107.19037 55.63411 6.92448 89.50144 11.68814 -1.18974 31.41964 105.70504 -55.6336 8.12098 -89.41001 8.80187 0.66056 45.33354 -6.33919 -8.45282 -21.88395 -6.93877 -2.14943 -3.30588 49.22719 12.3548 3.26329 -27.22668 -7.00159 1.53064 3.00302
0.003 0.00044 -0.00131 21.90213 -29.11109 -7.52142 46.1457 3.2002 -2.56345 -12.1488 -3.00492 -1.25586 51.07863 -107.17758 55.63411 6.91078 89.49783 11.71558 -1.18911 31.50911 105.70436 -55.63373 8.10787 -89.40024 8.81697 0.65962 45.28056 -6.34068 -8.49902 -21.88098 -6.93627 -2.15659 -3.3075 49.19261 12.31003 3.05234 -27.22823 -6.99604 1.54677 3.01205
0.00343 0.00048 -0.00146 21.92262 -29.10464 -7.52945 46.16823 3.19642 -2.55027 -12.16255 -2.99056 -1.25686 51.22238 -107.16775 55.63411 6.89719 89.49338 11.74453 -1.18896 31.5934 105.70786 -55.6339 8.09613 -89.39143 8.83087 0.66153 45.22512 -6.34086 -8.54978 -21.87767 -6.93369 -2.16442 -3.30939 49.15658 12.26389 2.82637 -27.22984 -6.99012 1.56415 3.02173
0.0038 0.00052 -0.00162 21.9443 -29.09864 -7.53477 46.18731 3.19314 -2.53895 -12.17632 -2.97833 -1.25761 51.34665 -107.15157 55.63411 6.88333 89.49081 11.77025 -1.18776 31.6884 105.7026 -55.634 8.08163 -89.38043 8.84722 0.65748 45.17495 -6.34367 -8.59023 -21.87513 -6.93129 -2.17091 -3.31075 49.12368 12.22078 2.63261 -27.23136 -6.98498 1.57886 3.03002
0.00404 0.00055 -0.00181 21.96909 -29.0939 -7.53251 46.19789 3.19131 -2.53277 -12.19039 -2.97226 -1.25764 51.4123 -107.11848 55.63411 6.86898 89.4926 11.78723 -1.18377 31.81521 105.6726 -55.6339 8.05837 -89.36455 8.87091 0.63645 45.1387 -6.35484 -8.60823 -21.87436 -6.92927 -2.17312 -3.31017 49.09883 12.18498 2.52368 -27.23243 -6.98194 1.58642 3.03469
0.00423 0.00058 -0.002 21.99506 -29.08962 -7.52756 46.20483 3.18998 -2.52843 -12.20443 -2.96827 -1.25743 51.45943 -107.07889 55.63411 6.8543 89.49642 11.80093 -1.17869 31.95238 105.63394 -55.63374 8.03254 -89.34626 8.89696 0.60955 45.10788 -6.36846 -8.615 -21.87441 -6.92746 -2.1741 -3.30913 49.07725 12.1524 2.44773 -27.23345 -6.97969 1.59127 3.03795
0.00445 0.0006 -0.00219 22.0206 -29.08509 -7.52393 46.21278 3.18837 -2.52322 -12.2183 -2.96311 -1.25735 51.51828 -107.04197 55.6341 6.83964 89.49984 11.81604 -1.17407 32.08315 105.59973 -55.63361 8.00871 -89.32827 8.9215 0.58576 45.07491 -6.38018 -8.62289 -21.87433 -6.92563 -2.17606 -3.30862 49.05447 12.119 2.35905 -27.23464 -6.97711 1.59726 3.04174
